<svg xmlns="http://www.w3.org/2000/svg" viewBox="0 0 410 404"><defs><linearGradient x1="6.893" y1="55.95" x2="284.72" y2="283.86" gradientUnits="userSpaceOnUse" id="a"><stop stop-color="#41d1ff"/><stop offset="1" stop-color="#bd34fe"/></linearGradient><linearGradient x1="139.24" y1="12.97" x2="253.32" y2="278.26" gradientUnits="userSpaceOnUse" id="b"><stop stop-color="#ffea83"/><stop offset=".083" stop-color="#ffdd35"/><stop offset="1" stop-color="#ffa800"/></linearGradient></defs><path fill="#1a1a1a" d="M399.6 59.53 215.3 388.57c-5.83 10.34-20.75 10.42-26.67.14L10.44 59.53c-6.23-10.68 1.29-24.09 13.53-23.73l176.81 5.33a15.3 15.3 0 0 1 14.84 11.14l26.71 96.21c2.3 8.3 13.82 8.34 16.18.06l23.7-81.8a15.3 15.3 0 0 1 14.67-11.06l89.17-3.9c12.24-.54 20.07 12.86 13.83 23.55Z"/><path fill="url(#a)" d="m284.6 7.95-106.02 364.6c-.29.99-1.75.92-1.93-.1L142 140.3a4.2 4.2 0 0 1 3.66-4.98l58.88-7.12a4.2 4.2 0 0 0 3.45-5.26l-17.01-58.2a4.2 4.2 0 0 1 3.58-5.36l90.64-11.12a4.2 4.2 0 0 0 3.38-2.53l6.74-16.84c1.5-3.75-1.7-7.68-5.74-6.55Z"/><path fill="url(#b)" d="M292.9 71.08 182.5 351.3c-.37.94-1.78.78-1.9-.22l-15.6-135.2a4.2 4.2 0 0 1 2.97-4.43l36.65-10.95a4.2 4.2 0 0 0 2.73-5.67L193 140.2a4.2 4.2 0 0 1 2.85-5.62l95.6-26.67a4.2 4.2 0 0 0 2.82-2.82l2.46-8.36c1.14-3.86-2.47-7.32-6.11-5.65Z"/></svg>
